<?xml version="1.0" encoding="UTF-8" ?>
<svg version="1.1" width="32" height="32" xmlns="http://www.w3.org/2000/svg" shape-rendering="crispEdges">
<rect x="10" y="8" width="1" height="1" fill="#FFFFFF" />
<rect x="11" y="8" width="1" height="1" fill="#FFFFFF" />
<rect x="20" y="8" width="1" height="1" fill="#FFFFFF" />
<rect x="21" y="8" width="1" height="1" fill="#FFFFFF" />
<rect x="9" y="9" width="1" height="1" fill="#FFFFFF" />
<rect x="10" y="9" width="1" height="1" fill="#FFFFFF" />
<rect x="11" y="9" width="1" height="1" fill="#FFFFFF" />
<rect x="12" y="9" width="1" height="1" fill="#FFFFFF" />
<rect x="19" y="9" width="1" height="1" fill="#FFFFFF" />
<rect x="20" y="9" width="1" height="1" fill="#FFFFFF" />
<rect x="21" y="9" width="1" height="1" fill="#FFFFFF" />
<rect x="22" y="9" width="1" height="1" fill="#FFFFFF" />
<rect x="9" y="10" width="1" height="1" fill="#FFFFFF" />
<rect x="10" y="10" width="1" height="1" fill="#FFFFFF" />
<rect x="11" y="10" width="1" height="1" fill="#FFFFFF" />
<rect x="12" y="10" width="1" height="1" fill="#FFFFFF" />
<rect x="19" y="10" width="1" height="1" fill="#FFFFFF" />
<rect x="20" y="10" width="1" height="1" fill="#FFFFFF" />
<rect x="21" y="10" width="1" height="1" fill="#FFFFFF" />
<rect x="22" y="10" width="1" height="1" fill="#FFFFFF" />
<rect x="9" y="11" width="1" height="1" fill="#FFFFFF" />
<rect x="10" y="11" width="1" height="1" fill="#FFFFFF" />
<rect x="11" y="11" width="1" height="1" fill="#FFFFFF" />
<rect x="12" y="11" width="1" height="1" fill="#FFFFFF" />
<rect x="19" y="11" width="1" height="1" fill="#FFFFFF" />
<rect x="20" y="11" width="1" height="1" fill="#FFFFFF" />
<rect x="21" y="11" width="1" height="1" fill="#FFFFFF" />
<rect x="22" y="11" width="1" height="1" fill="#FFFFFF" />
<rect x="9" y="12" width="1" height="1" fill="#FFFFFF" />
<rect x="10" y="12" width="1" height="1" fill="#FFFFFF" />
<rect x="11" y="12" width="1" height="1" fill="#FFFFFF" />
<rect x="12" y="12" width="1" height="1" fill="#FFFFFF" />
<rect x="19" y="12" width="1" height="1" fill="#FFFFFF" />
<rect x="20" y="12" width="1" height="1" fill="#FFFFFF" />
<rect x="21" y="12" width="1" height="1" fill="#FFFFFF" />
<rect x="22" y="12" width="1" height="1" fill="#FFFFFF" />
<rect x="9" y="13" width="1" height="1" fill="#FFFFFF" />
<rect x="10" y="13" width="1" height="1" fill="#FFFFFF" />
<rect x="11" y="13" width="1" height="1" fill="#FFFFFF" />
<rect x="12" y="13" width="1" height="1" fill="#FFFFFF" />
<rect x="19" y="13" width="1" height="1" fill="#FFFFFF" />
<rect x="20" y="13" width="1" height="1" fill="#FFFFFF" />
<rect x="21" y="13" width="1" height="1" fill="#FFFFFF" />
<rect x="22" y="13" width="1" height="1" fill="#FFFFFF" />
<rect x="9" y="14" width="1" height="1" fill="#FFFFFF" />
<rect x="10" y="14" width="1" height="1" fill="#FFFFFF" />
<rect x="11" y="14" width="1" height="1" fill="#FFFFFF" />
<rect x="12" y="14" width="1" height="1" fill="#FFFFFF" />
<rect x="19" y="14" width="1" height="1" fill="#FFFFFF" />
<rect x="20" y="14" width="1" height="1" fill="#FFFFFF" />
<rect x="21" y="14" width="1" height="1" fill="#FFFFFF" />
<rect x="22" y="14" width="1" height="1" fill="#FFFFFF" />
<rect x="9" y="15" width="1" height="1" fill="#FFFFFF" />
<rect x="10" y="15" width="1" height="1" fill="#FFFFFF" />
<rect x="11" y="15" width="1" height="1" fill="#FFFFFF" />
<rect x="12" y="15" width="1" height="1" fill="#FFFFFF" />
<rect x="19" y="15" width="1" height="1" fill="#FFFFFF" />
<rect x="20" y="15" width="1" height="1" fill="#FFFFFF" />
<rect x="21" y="15" width="1" height="1" fill="#FFFFFF" />
<rect x="22" y="15" width="1" height="1" fill="#FFFFFF" />
<rect x="9" y="16" width="1" height="1" fill="#FFFFFF" />
<rect x="10" y="16" width="1" height="1" fill="#FFFFFF" />
<rect x="11" y="16" width="1" height="1" fill="#FFFFFF" />
<rect x="12" y="16" width="1" height="1" fill="#FFFFFF" />
<rect x="19" y="16" width="1" height="1" fill="#FFFFFF" />
<rect x="20" y="16" width="1" height="1" fill="#FFFFFF" />
<rect x="21" y="16" width="1" height="1" fill="#FFFFFF" />
<rect x="22" y="16" width="1" height="1" fill="#FFFFFF" />
<rect x="9" y="17" width="1" height="1" fill="#FFFFFF" />
<rect x="10" y="17" width="1" height="1" fill="#FFFFFF" />
<rect x="11" y="17" width="1" height="1" fill="#FFFFFF" />
<rect x="12" y="17" width="1" height="1" fill="#FFFFFF" />
<rect x="19" y="17" width="1" height="1" fill="#FFFFFF" />
<rect x="20" y="17" width="1" height="1" fill="#FFFFFF" />
<rect x="21" y="17" width="1" height="1" fill="#FFFFFF" />
<rect x="22" y="17" width="1" height="1" fill="#FFFFFF" />
<rect x="9" y="18" width="1" height="1" fill="#FFFFFF" />
<rect x="10" y="18" width="1" height="1" fill="#FFFFFF" />
<rect x="11" y="18" width="1" height="1" fill="#FFFFFF" />
<rect x="12" y="18" width="1" height="1" fill="#FFFFFF" />
<rect x="19" y="18" width="1" height="1" fill="#FFFFFF" />
<rect x="20" y="18" width="1" height="1" fill="#FFFFFF" />
<rect x="21" y="18" width="1" height="1" fill="#FFFFFF" />
<rect x="22" y="18" width="1" height="1" fill="#FFFFFF" />
<rect x="9" y="19" width="1" height="1" fill="#FFFFFF" />
<rect x="10" y="19" width="1" height="1" fill="#FFFFFF" />
<rect x="11" y="19" width="1" height="1" fill="#FFFFFF" />
<rect x="12" y="19" width="1" height="1" fill="#FFFFFF" />
<rect x="19" y="19" width="1" height="1" fill="#FFFFFF" />
<rect x="20" y="19" width="1" height="1" fill="#FFFFFF" />
<rect x="21" y="19" width="1" height="1" fill="#FFFFFF" />
<rect x="22" y="19" width="1" height="1" fill="#FFFFFF" />
<rect x="9" y="20" width="1" height="1" fill="#FFFFFF" />
<rect x="10" y="20" width="1" height="1" fill="#FFFFFF" />
<rect x="11" y="20" width="1" height="1" fill="#FFFFFF" />
<rect x="12" y="20" width="1" height="1" fill="#FFFFFF" />
<rect x="19" y="20" width="1" height="1" fill="#FFFFFF" />
<rect x="20" y="20" width="1" height="1" fill="#FFFFFF" />
<rect x="21" y="20" width="1" height="1" fill="#FFFFFF" />
<rect x="22" y="20" width="1" height="1" fill="#FFFFFF" />
<rect x="9" y="21" width="1" height="1" fill="#FFFFFF" />
<rect x="10" y="21" width="1" height="1" fill="#FFFFFF" />
<rect x="11" y="21" width="1" height="1" fill="#FFFFFF" />
<rect x="12" y="21" width="1" height="1" fill="#FFFFFF" />
<rect x="19" y="21" width="1" height="1" fill="#FFFFFF" />
<rect x="20" y="21" width="1" height="1" fill="#FFFFFF" />
<rect x="21" y="21" width="1" height="1" fill="#FFFFFF" />
<rect x="22" y="21" width="1" height="1" fill="#FFFFFF" />
<rect x="9" y="22" width="1" height="1" fill="#FFFFFF" />
<rect x="10" y="22" width="1" height="1" fill="#FFFFFF" />
<rect x="11" y="22" width="1" height="1" fill="#FFFFFF" />
<rect x="12" y="22" width="1" height="1" fill="#FFFFFF" />
<rect x="19" y="22" width="1" height="1" fill="#FFFFFF" />
<rect x="20" y="22" width="1" height="1" fill="#FFFFFF" />
<rect x="21" y="22" width="1" height="1" fill="#FFFFFF" />
<rect x="22" y="22" width="1" height="1" fill="#FFFFFF" />
<rect x="10" y="23" width="1" height="1" fill="#FFFFFF" />
<rect x="11" y="23" width="1" height="1" fill="#FFFFFF" />
<rect x="20" y="23" width="1" height="1" fill="#FFFFFF" />
<rect x="21" y="23" width="1" height="1" fill="#FFFFFF" />
</svg>