<?xml version="1.0" encoding="UTF-8" ?>
<svg version="1.1" width="32" height="32" xmlns="http://www.w3.org/2000/svg" shape-rendering="crispEdges">
<rect x="14" y="7" width="1" height="1" fill="#FFFFFF" />
<rect x="15" y="7" width="1" height="1" fill="#FFFFFF" />
<rect x="13" y="8" width="1" height="1" fill="#FFFFFF" />
<rect x="14" y="8" width="1" height="1" fill="#FFFFFF" />
<rect x="15" y="8" width="1" height="1" fill="#FFFFFF" />
<rect x="16" y="8" width="1" height="1" fill="#FFFFFF" />
<rect x="12" y="9" width="1" height="1" fill="#FFFFFF" />
<rect x="13" y="9" width="1" height="1" fill="#FFFFFF" />
<rect x="14" y="9" width="1" height="1" fill="#FFFFFF" />
<rect x="15" y="9" width="1" height="1" fill="#FFFFFF" />
<rect x="16" y="9" width="1" height="1" fill="#FFFFFF" />
<rect x="11" y="10" width="1" height="1" fill="#FFFFFF" />
<rect x="12" y="10" width="1" height="1" fill="#FFFFFF" />
<rect x="13" y="10" width="1" height="1" fill="#FFFFFF" />
<rect x="14" y="10" width="1" height="1" fill="#FFFFFF" />
<rect x="15" y="10" width="1" height="1" fill="#FFFFFF" />
<rect x="10" y="11" width="1" height="1" fill="#FFFFFF" />
<rect x="11" y="11" width="1" height="1" fill="#FFFFFF" />
<rect x="12" y="11" width="1" height="1" fill="#FFFFFF" />
<rect x="13" y="11" width="1" height="1" fill="#FFFFFF" />
<rect x="14" y="11" width="1" height="1" fill="#FFFFFF" />
<rect x="9" y="12" width="1" height="1" fill="#FFFFFF" />
<rect x="10" y="12" width="1" height="1" fill="#FFFFFF" />
<rect x="11" y="12" width="1" height="1" fill="#FFFFFF" />
<rect x="12" y="12" width="1" height="1" fill="#FFFFFF" />
<rect x="13" y="12" width="1" height="1" fill="#FFFFFF" />
<rect x="8" y="13" width="1" height="1" fill="#FFFFFF" />
<rect x="9" y="13" width="1" height="1" fill="#FFFFFF" />
<rect x="10" y="13" width="1" height="1" fill="#FFFFFF" />
<rect x="11" y="13" width="1" height="1" fill="#FFFFFF" />
<rect x="12" y="13" width="1" height="1" fill="#FFFFFF" />
<rect x="7" y="14" width="1" height="1" fill="#FFFFFF" />
<rect x="8" y="14" width="1" height="1" fill="#FFFFFF" />
<rect x="9" y="14" width="1" height="1" fill="#FFFFFF" />
<rect x="10" y="14" width="1" height="1" fill="#FFFFFF" />
<rect x="11" y="14" width="1" height="1" fill="#FFFFFF" />
<rect x="12" y="14" width="1" height="1" fill="#FFFFFF" />
<rect x="13" y="14" width="1" height="1" fill="#FFFFFF" />
<rect x="14" y="14" width="1" height="1" fill="#FFFFFF" />
<rect x="15" y="14" width="1" height="1" fill="#FFFFFF" />
<rect x="16" y="14" width="1" height="1" fill="#FFFFFF" />
<rect x="17" y="14" width="1" height="1" fill="#FFFFFF" />
<rect x="18" y="14" width="1" height="1" fill="#FFFFFF" />
<rect x="19" y="14" width="1" height="1" fill="#FFFFFF" />
<rect x="20" y="14" width="1" height="1" fill="#FFFFFF" />
<rect x="21" y="14" width="1" height="1" fill="#FFFFFF" />
<rect x="22" y="14" width="1" height="1" fill="#FFFFFF" />
<rect x="23" y="14" width="1" height="1" fill="#FFFFFF" />
<rect x="24" y="14" width="1" height="1" fill="#FFFFFF" />
<rect x="6" y="15" width="1" height="1" fill="#FFFFFF" />
<rect x="7" y="15" width="1" height="1" fill="#FFFFFF" />
<rect x="8" y="15" width="1" height="1" fill="#FFFFFF" />
<rect x="9" y="15" width="1" height="1" fill="#FFFFFF" />
<rect x="10" y="15" width="1" height="1" fill="#FFFFFF" />
<rect x="11" y="15" width="1" height="1" fill="#FFFFFF" />
<rect x="12" y="15" width="1" height="1" fill="#FFFFFF" />
<rect x="13" y="15" width="1" height="1" fill="#FFFFFF" />
<rect x="14" y="15" width="1" height="1" fill="#FFFFFF" />
<rect x="15" y="15" width="1" height="1" fill="#FFFFFF" />
<rect x="16" y="15" width="1" height="1" fill="#FFFFFF" />
<rect x="17" y="15" width="1" height="1" fill="#FFFFFF" />
<rect x="18" y="15" width="1" height="1" fill="#FFFFFF" />
<rect x="19" y="15" width="1" height="1" fill="#FFFFFF" />
<rect x="20" y="15" width="1" height="1" fill="#FFFFFF" />
<rect x="21" y="15" width="1" height="1" fill="#FFFFFF" />
<rect x="22" y="15" width="1" height="1" fill="#FFFFFF" />
<rect x="23" y="15" width="1" height="1" fill="#FFFFFF" />
<rect x="24" y="15" width="1" height="1" fill="#FFFFFF" />
<rect x="25" y="15" width="1" height="1" fill="#FFFFFF" />
<rect x="6" y="16" width="1" height="1" fill="#FFFFFF" />
<rect x="7" y="16" width="1" height="1" fill="#FFFFFF" />
<rect x="8" y="16" width="1" height="1" fill="#FFFFFF" />
<rect x="9" y="16" width="1" height="1" fill="#FFFFFF" />
<rect x="10" y="16" width="1" height="1" fill="#FFFFFF" />
<rect x="11" y="16" width="1" height="1" fill="#FFFFFF" />
<rect x="12" y="16" width="1" height="1" fill="#FFFFFF" />
<rect x="13" y="16" width="1" height="1" fill="#FFFFFF" />
<rect x="14" y="16" width="1" height="1" fill="#FFFFFF" />
<rect x="15" y="16" width="1" height="1" fill="#FFFFFF" />
<rect x="16" y="16" width="1" height="1" fill="#FFFFFF" />
<rect x="17" y="16" width="1" height="1" fill="#FFFFFF" />
<rect x="18" y="16" width="1" height="1" fill="#FFFFFF" />
<rect x="19" y="16" width="1" height="1" fill="#FFFFFF" />
<rect x="20" y="16" width="1" height="1" fill="#FFFFFF" />
<rect x="21" y="16" width="1" height="1" fill="#FFFFFF" />
<rect x="22" y="16" width="1" height="1" fill="#FFFFFF" />
<rect x="23" y="16" width="1" height="1" fill="#FFFFFF" />
<rect x="24" y="16" width="1" height="1" fill="#FFFFFF" />
<rect x="25" y="16" width="1" height="1" fill="#FFFFFF" />
<rect x="7" y="17" width="1" height="1" fill="#FFFFFF" />
<rect x="8" y="17" width="1" height="1" fill="#FFFFFF" />
<rect x="9" y="17" width="1" height="1" fill="#FFFFFF" />
<rect x="10" y="17" width="1" height="1" fill="#FFFFFF" />
<rect x="11" y="17" width="1" height="1" fill="#FFFFFF" />
<rect x="12" y="17" width="1" height="1" fill="#FFFFFF" />
<rect x="13" y="17" width="1" height="1" fill="#FFFFFF" />
<rect x="14" y="17" width="1" height="1" fill="#FFFFFF" />
<rect x="15" y="17" width="1" height="1" fill="#FFFFFF" />
<rect x="16" y="17" width="1" height="1" fill="#FFFFFF" />
<rect x="17" y="17" width="1" height="1" fill="#FFFFFF" />
<rect x="18" y="17" width="1" height="1" fill="#FFFFFF" />
<rect x="19" y="17" width="1" height="1" fill="#FFFFFF" />
<rect x="20" y="17" width="1" height="1" fill="#FFFFFF" />
<rect x="21" y="17" width="1" height="1" fill="#FFFFFF" />
<rect x="22" y="17" width="1" height="1" fill="#FFFFFF" />
<rect x="23" y="17" width="1" height="1" fill="#FFFFFF" />
<rect x="24" y="17" width="1" height="1" fill="#FFFFFF" />
<rect x="8" y="18" width="1" height="1" fill="#FFFFFF" />
<rect x="9" y="18" width="1" height="1" fill="#FFFFFF" />
<rect x="10" y="18" width="1" height="1" fill="#FFFFFF" />
<rect x="11" y="18" width="1" height="1" fill="#FFFFFF" />
<rect x="12" y="18" width="1" height="1" fill="#FFFFFF" />
<rect x="9" y="19" width="1" height="1" fill="#FFFFFF" />
<rect x="10" y="19" width="1" height="1" fill="#FFFFFF" />
<rect x="11" y="19" width="1" height="1" fill="#FFFFFF" />
<rect x="12" y="19" width="1" height="1" fill="#FFFFFF" />
<rect x="13" y="19" width="1" height="1" fill="#FFFFFF" />
<rect x="10" y="20" width="1" height="1" fill="#FFFFFF" />
<rect x="11" y="20" width="1" height="1" fill="#FFFFFF" />
<rect x="12" y="20" width="1" height="1" fill="#FFFFFF" />
<rect x="13" y="20" width="1" height="1" fill="#FFFFFF" />
<rect x="14" y="20" width="1" height="1" fill="#FFFFFF" />
<rect x="11" y="21" width="1" height="1" fill="#FFFFFF" />
<rect x="12" y="21" width="1" height="1" fill="#FFFFFF" />
<rect x="13" y="21" width="1" height="1" fill="#FFFFFF" />
<rect x="14" y="21" width="1" height="1" fill="#FFFFFF" />
<rect x="15" y="21" width="1" height="1" fill="#FFFFFF" />
<rect x="12" y="22" width="1" height="1" fill="#FFFFFF" />
<rect x="13" y="22" width="1" height="1" fill="#FFFFFF" />
<rect x="14" y="22" width="1" height="1" fill="#FFFFFF" />
<rect x="15" y="22" width="1" height="1" fill="#FFFFFF" />
<rect x="16" y="22" width="1" height="1" fill="#FFFFFF" />
<rect x="13" y="23" width="1" height="1" fill="#FFFFFF" />
<rect x="14" y="23" width="1" height="1" fill="#FFFFFF" />
<rect x="15" y="23" width="1" height="1" fill="#FFFFFF" />
<rect x="16" y="23" width="1" height="1" fill="#FFFFFF" />
<rect x="14" y="24" width="1" height="1" fill="#FFFFFF" />
<rect x="15" y="24" width="1" height="1" fill="#FFFFFF" />
</svg>