<?xml version="1.0" encoding="UTF-8" ?>
<svg version="1.1" width="32" height="32" xmlns="http://www.w3.org/2000/svg" shape-rendering="crispEdges">
<rect x="13" y="6" width="1" height="1" fill="#FFFFFF" />
<rect x="14" y="6" width="1" height="1" fill="#FFFFFF" />
<rect x="15" y="6" width="1" height="1" fill="#FFFFFF" />
<rect x="16" y="6" width="1" height="1" fill="#FFFFFF" />
<rect x="17" y="6" width="1" height="1" fill="#FFFFFF" />
<rect x="18" y="6" width="1" height="1" fill="#FFFFFF" />
<rect x="12" y="7" width="1" height="1" fill="#FFFFFF" />
<rect x="13" y="7" width="1" height="1" fill="#FFFFFF" />
<rect x="14" y="7" width="1" height="1" fill="#FFFFFF" />
<rect x="15" y="7" width="1" height="1" fill="#FFFFFF" />
<rect x="16" y="7" width="1" height="1" fill="#FFFFFF" />
<rect x="17" y="7" width="1" height="1" fill="#FFFFFF" />
<rect x="18" y="7" width="1" height="1" fill="#FFFFFF" />
<rect x="19" y="7" width="1" height="1" fill="#FFFFFF" />
<rect x="12" y="8" width="1" height="1" fill="#FFFFFF" />
<rect x="13" y="8" width="1" height="1" fill="#FFFFFF" />
<rect x="18" y="8" width="1" height="1" fill="#FFFFFF" />
<rect x="19" y="8" width="1" height="1" fill="#FFFFFF" />
<rect x="9" y="9" width="1" height="1" fill="#FFFFFF" />
<rect x="10" y="9" width="1" height="1" fill="#FFFFFF" />
<rect x="11" y="9" width="1" height="1" fill="#FFFFFF" />
<rect x="12" y="9" width="1" height="1" fill="#FFFFFF" />
<rect x="19" y="9" width="1" height="1" fill="#FFFFFF" />
<rect x="20" y="9" width="1" height="1" fill="#FFFFFF" />
<rect x="21" y="9" width="1" height="1" fill="#FFFFFF" />
<rect x="22" y="9" width="1" height="1" fill="#FFFFFF" />
<rect x="7" y="10" width="1" height="1" fill="#FFFFFF" />
<rect x="8" y="10" width="1" height="1" fill="#FFFFFF" />
<rect x="9" y="10" width="1" height="1" fill="#FFFFFF" />
<rect x="10" y="10" width="1" height="1" fill="#FFFFFF" />
<rect x="11" y="10" width="1" height="1" fill="#FFFFFF" />
<rect x="20" y="10" width="1" height="1" fill="#FFFFFF" />
<rect x="21" y="10" width="1" height="1" fill="#FFFFFF" />
<rect x="22" y="10" width="1" height="1" fill="#FFFFFF" />
<rect x="23" y="10" width="1" height="1" fill="#FFFFFF" />
<rect x="24" y="10" width="1" height="1" fill="#FFFFFF" />
<rect x="7" y="11" width="1" height="1" fill="#FFFFFF" />
<rect x="8" y="11" width="1" height="1" fill="#FFFFFF" />
<rect x="23" y="11" width="1" height="1" fill="#FFFFFF" />
<rect x="24" y="11" width="1" height="1" fill="#FFFFFF" />
<rect x="6" y="12" width="1" height="1" fill="#FFFFFF" />
<rect x="7" y="12" width="1" height="1" fill="#FFFFFF" />
<rect x="14" y="12" width="1" height="1" fill="#FFFFFF" />
<rect x="15" y="12" width="1" height="1" fill="#FFFFFF" />
<rect x="16" y="12" width="1" height="1" fill="#FFFFFF" />
<rect x="17" y="12" width="1" height="1" fill="#FFFFFF" />
<rect x="24" y="12" width="1" height="1" fill="#FFFFFF" />
<rect x="25" y="12" width="1" height="1" fill="#FFFFFF" />
<rect x="6" y="13" width="1" height="1" fill="#FFFFFF" />
<rect x="7" y="13" width="1" height="1" fill="#FFFFFF" />
<rect x="13" y="13" width="1" height="1" fill="#FFFFFF" />
<rect x="14" y="13" width="1" height="1" fill="#FFFFFF" />
<rect x="15" y="13" width="1" height="1" fill="#FFFFFF" />
<rect x="16" y="13" width="1" height="1" fill="#FFFFFF" />
<rect x="17" y="13" width="1" height="1" fill="#FFFFFF" />
<rect x="18" y="13" width="1" height="1" fill="#FFFFFF" />
<rect x="24" y="13" width="1" height="1" fill="#FFFFFF" />
<rect x="25" y="13" width="1" height="1" fill="#FFFFFF" />
<rect x="6" y="14" width="1" height="1" fill="#FFFFFF" />
<rect x="7" y="14" width="1" height="1" fill="#FFFFFF" />
<rect x="12" y="14" width="1" height="1" fill="#FFFFFF" />
<rect x="13" y="14" width="1" height="1" fill="#FFFFFF" />
<rect x="18" y="14" width="1" height="1" fill="#FFFFFF" />
<rect x="19" y="14" width="1" height="1" fill="#FFFFFF" />
<rect x="24" y="14" width="1" height="1" fill="#FFFFFF" />
<rect x="25" y="14" width="1" height="1" fill="#FFFFFF" />
<rect x="6" y="15" width="1" height="1" fill="#FFFFFF" />
<rect x="7" y="15" width="1" height="1" fill="#FFFFFF" />
<rect x="11" y="15" width="1" height="1" fill="#FFFFFF" />
<rect x="12" y="15" width="1" height="1" fill="#FFFFFF" />
<rect x="19" y="15" width="1" height="1" fill="#FFFFFF" />
<rect x="20" y="15" width="1" height="1" fill="#FFFFFF" />
<rect x="24" y="15" width="1" height="1" fill="#FFFFFF" />
<rect x="25" y="15" width="1" height="1" fill="#FFFFFF" />
<rect x="6" y="16" width="1" height="1" fill="#FFFFFF" />
<rect x="7" y="16" width="1" height="1" fill="#FFFFFF" />
<rect x="11" y="16" width="1" height="1" fill="#FFFFFF" />
<rect x="12" y="16" width="1" height="1" fill="#FFFFFF" />
<rect x="19" y="16" width="1" height="1" fill="#FFFFFF" />
<rect x="20" y="16" width="1" height="1" fill="#FFFFFF" />
<rect x="24" y="16" width="1" height="1" fill="#FFFFFF" />
<rect x="25" y="16" width="1" height="1" fill="#FFFFFF" />
<rect x="6" y="17" width="1" height="1" fill="#FFFFFF" />
<rect x="7" y="17" width="1" height="1" fill="#FFFFFF" />
<rect x="11" y="17" width="1" height="1" fill="#FFFFFF" />
<rect x="12" y="17" width="1" height="1" fill="#FFFFFF" />
<rect x="19" y="17" width="1" height="1" fill="#FFFFFF" />
<rect x="20" y="17" width="1" height="1" fill="#FFFFFF" />
<rect x="24" y="17" width="1" height="1" fill="#FFFFFF" />
<rect x="25" y="17" width="1" height="1" fill="#FFFFFF" />
<rect x="6" y="18" width="1" height="1" fill="#FFFFFF" />
<rect x="7" y="18" width="1" height="1" fill="#FFFFFF" />
<rect x="11" y="18" width="1" height="1" fill="#FFFFFF" />
<rect x="12" y="18" width="1" height="1" fill="#FFFFFF" />
<rect x="19" y="18" width="1" height="1" fill="#FFFFFF" />
<rect x="20" y="18" width="1" height="1" fill="#FFFFFF" />
<rect x="24" y="18" width="1" height="1" fill="#FFFFFF" />
<rect x="25" y="18" width="1" height="1" fill="#FFFFFF" />
<rect x="6" y="19" width="1" height="1" fill="#FFFFFF" />
<rect x="7" y="19" width="1" height="1" fill="#FFFFFF" />
<rect x="12" y="19" width="1" height="1" fill="#FFFFFF" />
<rect x="13" y="19" width="1" height="1" fill="#FFFFFF" />
<rect x="18" y="19" width="1" height="1" fill="#FFFFFF" />
<rect x="19" y="19" width="1" height="1" fill="#FFFFFF" />
<rect x="24" y="19" width="1" height="1" fill="#FFFFFF" />
<rect x="25" y="19" width="1" height="1" fill="#FFFFFF" />
<rect x="6" y="20" width="1" height="1" fill="#FFFFFF" />
<rect x="7" y="20" width="1" height="1" fill="#FFFFFF" />
<rect x="13" y="20" width="1" height="1" fill="#FFFFFF" />
<rect x="14" y="20" width="1" height="1" fill="#FFFFFF" />
<rect x="15" y="20" width="1" height="1" fill="#FFFFFF" />
<rect x="16" y="20" width="1" height="1" fill="#FFFFFF" />
<rect x="17" y="20" width="1" height="1" fill="#FFFFFF" />
<rect x="18" y="20" width="1" height="1" fill="#FFFFFF" />
<rect x="24" y="20" width="1" height="1" fill="#FFFFFF" />
<rect x="25" y="20" width="1" height="1" fill="#FFFFFF" />
<rect x="6" y="21" width="1" height="1" fill="#FFFFFF" />
<rect x="7" y="21" width="1" height="1" fill="#FFFFFF" />
<rect x="14" y="21" width="1" height="1" fill="#FFFFFF" />
<rect x="15" y="21" width="1" height="1" fill="#FFFFFF" />
<rect x="16" y="21" width="1" height="1" fill="#FFFFFF" />
<rect x="17" y="21" width="1" height="1" fill="#FFFFFF" />
<rect x="24" y="21" width="1" height="1" fill="#FFFFFF" />
<rect x="25" y="21" width="1" height="1" fill="#FFFFFF" />
<rect x="6" y="22" width="1" height="1" fill="#FFFFFF" />
<rect x="7" y="22" width="1" height="1" fill="#FFFFFF" />
<rect x="24" y="22" width="1" height="1" fill="#FFFFFF" />
<rect x="25" y="22" width="1" height="1" fill="#FFFFFF" />
<rect x="7" y="23" width="1" height="1" fill="#FFFFFF" />
<rect x="8" y="23" width="1" height="1" fill="#FFFFFF" />
<rect x="23" y="23" width="1" height="1" fill="#FFFFFF" />
<rect x="24" y="23" width="1" height="1" fill="#FFFFFF" />
<rect x="7" y="24" width="1" height="1" fill="#FFFFFF" />
<rect x="8" y="24" width="1" height="1" fill="#FFFFFF" />
<rect x="9" y="24" width="1" height="1" fill="#FFFFFF" />
<rect x="10" y="24" width="1" height="1" fill="#FFFFFF" />
<rect x="11" y="24" width="1" height="1" fill="#FFFFFF" />
<rect x="12" y="24" width="1" height="1" fill="#FFFFFF" />
<rect x="13" y="24" width="1" height="1" fill="#FFFFFF" />
<rect x="14" y="24" width="1" height="1" fill="#FFFFFF" />
<rect x="15" y="24" width="1" height="1" fill="#FFFFFF" />
<rect x="16" y="24" width="1" height="1" fill="#FFFFFF" />
<rect x="17" y="24" width="1" height="1" fill="#FFFFFF" />
<rect x="18" y="24" width="1" height="1" fill="#FFFFFF" />
<rect x="19" y="24" width="1" height="1" fill="#FFFFFF" />
<rect x="20" y="24" width="1" height="1" fill="#FFFFFF" />
<rect x="21" y="24" width="1" height="1" fill="#FFFFFF" />
<rect x="22" y="24" width="1" height="1" fill="#FFFFFF" />
<rect x="23" y="24" width="1" height="1" fill="#FFFFFF" />
<rect x="24" y="24" width="1" height="1" fill="#FFFFFF" />
<rect x="9" y="25" width="1" height="1" fill="#FFFFFF" />
<rect x="10" y="25" width="1" height="1" fill="#FFFFFF" />
<rect x="11" y="25" width="1" height="1" fill="#FFFFFF" />
<rect x="12" y="25" width="1" height="1" fill="#FFFFFF" />
<rect x="13" y="25" width="1" height="1" fill="#FFFFFF" />
<rect x="14" y="25" width="1" height="1" fill="#FFFFFF" />
<rect x="15" y="25" width="1" height="1" fill="#FFFFFF" />
<rect x="16" y="25" width="1" height="1" fill="#FFFFFF" />
<rect x="17" y="25" width="1" height="1" fill="#FFFFFF" />
<rect x="18" y="25" width="1" height="1" fill="#FFFFFF" />
<rect x="19" y="25" width="1" height="1" fill="#FFFFFF" />
<rect x="20" y="25" width="1" height="1" fill="#FFFFFF" />
<rect x="21" y="25" width="1" height="1" fill="#FFFFFF" />
<rect x="22" y="25" width="1" height="1" fill="#FFFFFF" />
</svg>